REM DIRINDEX 1\5,1\2\6,1\2\7,1\3\8,1\3\9,1\4\10,1\4\11,1\4\12
REM DIRNAME cjc026,folder01,folder02,folder03,folder04,folder05,folder06,folder07,folder08,folder09,folder10,folder11
TITLE ""
FILE "EJE_DB3000_5th_1A_18.mp3" MP3
  TRACK 01 AUDIO
    TITLE "0:"
    INDEX 01 00:00:00
  TRACK 02 AUDIO
    TITLE "10:cjc026_07362"
    INDEX 01 00:00:08
  TRACK 03 AUDIO
    TITLE "0:"
    INDEX 01 00:01:22
  TRACK 04 AUDIO
    TITLE "11:cjc026_07363"
    INDEX 01 00:01:60
  TRACK 05 AUDIO
    TITLE "0:"
    INDEX 01 00:03:07
  TRACK 06 AUDIO
    TITLE "12:cjc026_07364"
    INDEX 01 00:03:42
  TRACK 07 AUDIO
    TITLE "0:"
    INDEX 01 00:04:56
  TRACK 08 AUDIO
    TITLE "10:cjc026_07365"
    INDEX 01 00:05:19
  TRACK 09 AUDIO
    TITLE "0:"
    INDEX 01 00:06:30
  TRACK 10 AUDIO
    TITLE "11:cjc026_07366"
    INDEX 01 00:06:68
  TRACK 11 AUDIO
    TITLE "0:"
    INDEX 01 00:08:12
  TRACK 12 AUDIO
    TITLE "12:cjc026_07367"
    INDEX 01 00:08:48
  TRACK 13 AUDIO
    TITLE "0:"
    INDEX 01 00:09:62
  TRACK 14 AUDIO
    TITLE "10:cjc026_07368"
    INDEX 01 00:10:24
  TRACK 15 AUDIO
    TITLE "0:"
    INDEX 01 00:11:44
  TRACK 16 AUDIO
    TITLE "11:cjc026_07369"
    INDEX 01 00:12:04
  TRACK 17 AUDIO
    TITLE "0:"
    INDEX 01 00:13:29
  TRACK 18 AUDIO
    TITLE "12:cjc026_07370"
    INDEX 01 00:13:64
  TRACK 19 AUDIO
    TITLE "0:"
    INDEX 01 00:15:09
  TRACK 20 AUDIO
    TITLE "10:cjc026_07371"
    INDEX 01 00:15:46
  TRACK 21 AUDIO
    TITLE "0:"
    INDEX 01 00:16:66
  TRACK 22 AUDIO
    TITLE "11:cjc026_07372"
    INDEX 01 00:17:29
  TRACK 23 AUDIO
    TITLE "0:"
    INDEX 01 00:18:62
  TRACK 24 AUDIO
    TITLE "12:cjc026_07373"
    INDEX 01 00:19:22
  TRACK 25 AUDIO
    TITLE "0:"
    INDEX 01 00:20:41
  TRACK 26 AUDIO
    TITLE "10:cjc026_07374"
    INDEX 01 00:21:04
  TRACK 27 AUDIO
    TITLE "0:"
    INDEX 01 00:22:15
  TRACK 28 AUDIO
    TITLE "11:cjc026_07375"
    INDEX 01 00:22:51
  TRACK 29 AUDIO
    TITLE "0:"
    INDEX 01 00:24:06
  TRACK 30 AUDIO
    TITLE "12:cjc026_07376"
    INDEX 01 00:24:41
  TRACK 31 AUDIO
    TITLE "0:"
    INDEX 01 00:25:52
  TRACK 32 AUDIO
    TITLE "10:cjc026_07377"
    INDEX 01 00:26:15
  TRACK 33 AUDIO
    TITLE "0:"
    INDEX 01 00:27:35
  TRACK 34 AUDIO
    TITLE "11:cjc026_07378"
    INDEX 01 00:27:67
  TRACK 35 AUDIO
    TITLE "0:"
    INDEX 01 00:31:02
  TRACK 36 AUDIO
    TITLE "12:cjc026_07379"
    INDEX 01 00:31:37
  TRACK 37 AUDIO
    TITLE "0:"
    INDEX 01 00:32:57
  TRACK 38 AUDIO
    TITLE "10:cjc026_07380"
    INDEX 01 00:33:19
  TRACK 39 AUDIO
    TITLE "0:"
    INDEX 01 00:34:31
  TRACK 40 AUDIO
    TITLE "11:cjc026_07381"
    INDEX 01 00:34:69
  TRACK 41 AUDIO
    TITLE "0:"
    INDEX 01 00:36:10
  TRACK 42 AUDIO
    TITLE "12:cjc026_07382"
    INDEX 01 00:36:48
  TRACK 43 AUDIO
    TITLE "0:"
    INDEX 01 00:37:57
  TRACK 44 AUDIO
    TITLE "10:cjc026_07383"
    INDEX 01 00:38:22
  TRACK 45 AUDIO
    TITLE "0:"
    INDEX 01 00:39:53
  TRACK 46 AUDIO
    TITLE "11:cjc026_07384"
    INDEX 01 00:40:13
  TRACK 47 AUDIO
    TITLE "0:"
    INDEX 01 00:41:67
  TRACK 48 AUDIO
    TITLE "12:cjc026_07385"
    INDEX 01 00:42:27
  TRACK 49 AUDIO
    TITLE "0:"
    INDEX 01 00:43:55
  TRACK 50 AUDIO
    TITLE "10:cjc026_07386"
    INDEX 01 00:44:18
  TRACK 51 AUDIO
    TITLE "0:"
    INDEX 01 00:45:35
  TRACK 52 AUDIO
    TITLE "11:cjc026_07387"
    INDEX 01 00:45:72
  TRACK 53 AUDIO
    TITLE "0:"
    INDEX 01 00:47:28
  TRACK 54 AUDIO
    TITLE "12:cjc026_07388"
    INDEX 01 00:47:60
  TRACK 55 AUDIO
    TITLE "0:"
    INDEX 01 00:49:05
  TRACK 56 AUDIO
    TITLE "10:cjc026_07389"
    INDEX 01 00:49:40
  TRACK 57 AUDIO
    TITLE "0:"
    INDEX 01 00:50:62
  TRACK 58 AUDIO
    TITLE "11:cjc026_07390"
    INDEX 01 00:51:22
  TRACK 59 AUDIO
    TITLE "0:"
    INDEX 01 00:53:02
  TRACK 60 AUDIO
    TITLE "12:cjc026_07391"
    INDEX 01 00:53:37
  TRACK 61 AUDIO
    TITLE "0:"
    INDEX 01 00:54:59
  TRACK 62 AUDIO
    TITLE "10:cjc026_07392"
    INDEX 01 00:55:19
  TRACK 63 AUDIO
    TITLE "0:"
    INDEX 01 00:56:41
  TRACK 64 AUDIO
    TITLE "11:cjc026_07393"
    INDEX 01 00:57:01
  TRACK 65 AUDIO
    TITLE "0:"
    INDEX 01 00:58:48
  TRACK 66 AUDIO
    TITLE "12:cjc026_07394"
    INDEX 01 00:59:08
  TRACK 67 AUDIO
    TITLE "0:"
    INDEX 01 01:00:30
  TRACK 68 AUDIO
    TITLE "10:cjc026_07395"
    INDEX 01 01:00:68
  TRACK 69 AUDIO
    TITLE "0:"
    INDEX 01 01:02:18
  TRACK 70 AUDIO
    TITLE "11:cjc026_07396"
    INDEX 01 01:02:53
  TRACK 71 AUDIO
    TITLE "0:"
    INDEX 01 01:04:08
  TRACK 72 AUDIO
    TITLE "12:cjc026_07397"
    INDEX 01 01:04:46
  TRACK 73 AUDIO
    TITLE "0:"
    INDEX 01 01:05:71
